<svg xmlns="http://www.w3.org/2000/svg" width="64" height="64" viewBox="0 0 16.933 16.933"><path fill="green" d="M0 0h16.961v16.933H0z"/><path d="M5.395 4.5h.882v.881h-.882v2.204a.882.882 0 01-.881.882c.486 0 .88.395.881.881v2.204h.882v.881h-.882c-.471-.119-.881-.396-.881-.881V9.789a.882.882 0 00-.882-.882h-.44v-.881h.44a.882.882 0 00.882-.882V5.381c0-.486.395-.88.881-.881m6.171 0c.487 0 .881.394.882.881v1.763c0 .487.394.881.881.882h.44v.881h-.44a.882.882 0 00-.881.882v1.763a.882.882 0 01-.882.881h-.882v-.881h.882V9.348c0-.487.395-.881.882-.881a.882.882 0 01-.882-.882V5.381h-.882V4.5h.882" fill="#fff"/><path d="M8.467 10.36a1.894 1.894 0 001.893-1.893 1.894 1.894 0 00-1.893-1.894 1.894 1.894 0 00-1.894 1.893 1.894 1.894 0 001.894 1.894m0-4.26a2.367 2.367 0 012.367 2.367 2.367 2.367 0 01-2.367 2.367 2.37 2.37 0 01-2.368-2.367 2.367 2.367 0 012.368-2.368m.118 1.184v1.243l1.065.632-.178.29-1.242-.745v-1.42z" fill="#fff"/></svg>